{"title":"Thunderbirds Are Go S01E20 The Hexpert 1080P WEB-DL DD5 1 H 264","uid":13692962,"size":964559474,"categoryP":"video","categoryS":"hd___tv_shows","magnet":"?xt=urn:btih:d37408ba15f3426f9a687d2a074dd8dcdc690a92&amp;dn=Thunderbirds+Are+Go+S01E20+The+Hexpert+1080P+WEB-DL+DD5+1+H+264&amp;tr=udp%3A%2F%2Ftracker.leechers-paradise.org%3A6969&amp;tr=udp%3A%2F%2Fzer0day.ch%3A1337&amp;tr=udp%3A%2F%2Fopen.demonii.com%3A1337&amp;tr=udp%3A%2F%2Ftracker.coppersurfer.tk%3A6969&amp;tr=udp%3A%2F%2Fexodus.desync.com%3A6969","seeders":0,"leechers":0,"uploader":"jmanwf","files":1,"time":1456634914,"description":"Description\r\nA scientist has accidentally locked himself inside a highly sophisticated security vault, and the only person to ever successfully break into the vault was Parker...30 years ago! Parker has 2 hours to crack a highly advanced system while Scott and Virgil work to secure the vault by attaching cables to the lab using TB1 and TB2. With only seconds to spare, the vault is lifted to a safe area, and Parker springs the lock to save the scientist in the nick of time!\r\n\r\n\r\nVideo\r\nID : 2\r\nFormat : AVC\r\nFormat/Info : Advanced Video Codec\r\nFormat profile :   \r\nFormat settings, CABAC : Yes\r\nFormat settings, ReFrames : 4 frames\r\nCodec ID : avc1\r\nCodec ID/Info : Advanced Video Coding\r\nDuration : 22mn 20s\r\nBit rate : 5 243 Kbps\r\nWidth : 1 912 pixels\r\nHeight : 1 072 pixels\r\nDisplay aspect ratio : 16:9\r\nFrame rate mode : Constant\r\nFrame rate : 25.000 fps\r\nColor space : YUV\r\nChroma subsampling : 4:2:0\r\nBit depth : 8 bits\r\nScan type : Progressive\r\nBits/(Pixel*Frame) : 0.102\r\nStream size : 838 MiB (91%)\r\nLanguage : English\r\nEncoded date : UTC 2015-12-16 10:42:53\r\nTagged date : UTC 2015-12-16 10:45:25\r\nColor range : Limited\r\nColor primaries : BT.709\r\nTransfer characteristics : BT.709\r\nMatrix coefficients : BT.709\r\n\r\nAudio #1\r\nID : 1\r\nFormat : AAC\r\nFormat/Info : Advanced Audio Codec\r\nFormat profile : LC\r\nCodec ID : 40\r\nDuration : 22mn 20s\r\nBit rate mode : Variable\r\nBit rate : 125 Kbps\r\nMaximum bit rate : 195 Kbps\r\nChannel(s) : 2 channels\r\nChannel positions : Front: L R\r\nSampling rate : 48.0 KHz\r\nCompression mode : Lossy\r\nStream size : 19.9 MiB (2%)\r\nLanguage : English\r\nEncoded date : UTC 2015-12-16 10:42:52\r\nTagged date : UTC 2015-12-16 10:45:25\r\n\r\nAudio #2\r\nID : 3\r\nFormat : AC-3\r\nFormat/Info : Audio Coding 3\r\nMode extension : CM (complete main)\r\nFormat settings, Endianness : Big\r\nCodec ID : ac-3\r\nDuration : 22mn 20s\r\nBit rate mode : Constant\r\nBit rate : 384 Kbps\r\nChannel(s) : 6 channels\r\nChannel positions : Front: L C R, Side: L R, LFE\r\nSampling rate : 48.0 KHz\r\nBit depth : 16 bits\r\nCompression mode : Lossy\r\nStream size : 61.4 MiB (7%)\r\nLanguage : English\r\nEncoded date : UTC 2015-12-16 10:42:53\r\nTagged date : UTC 2015-12-16 10:45:25","torrent":{"xt":"urn:btih:d37408ba15f3426f9a687d2a074dd8dcdc690a92","amp;dn":"Thunderbirds+Are+Go+S01E20+The+Hexpert+1080P+WEB-DL+DD5+1+H+264","amp;tr":["udp%3A%2F%2Ftracker.leechers-paradise.org%3A6969","udp%3A%2F%2Fzer0day.ch%3A1337","udp%3A%2F%2Fopen.demonii.com%3A1337","udp%3A%2F%2Ftracker.coppersurfer.tk%3A6969","udp%3A%2F%2Fexodus.desync.com%3A6969"],"infoHash":"d37408ba15f3426f9a687d2a074dd8dcdc690a92","infoHashBuffer":{"type":"Buffer","data":[211,116,8,186,21,243,66,111,154,104,125,42,7,77,216,220,220,105,10,146]},"announce":[],"urlList":[]}}